<svg xmlns="http://www.w3.org/2000/svg" xmlns:xlink="http://www.w3.org/1999/xlink" viewBox="0 0 451.24 346.28"><defs><style>.cls-1{isolation:isolate;}.cls-2{fill:#e3e4e8;}.cls-3{fill:#7874b5;}.cls-4{fill:#6b5e9a;}.cls-5{fill:#a397c9;}.cls-6{fill:#f5a158;}.cls-7{fill:#f28e3a;}.cls-8{fill:#cf752a;}.cls-9{fill:#fcc238;}.cls-10{fill:#cc8f09;}.cls-11{fill:#f9b215;}.cls-12{fill:#06948f;}.cls-13{fill:#34b6b4;}.cls-14{fill:#01bae7;}.cls-15{fill:#68c7f2;}.cls-16{mix-blend-mode:multiply;opacity:0.5;fill:url(#Degradado_sin_nombre_175);}</style><linearGradient id="Degradado_sin_nombre_175" x1="29.09" y1="214.2" x2="417.9" y2="214.2" gradientUnits="userSpaceOnUse"><stop offset="0" stop-color="#b8b8b8"/><stop offset="0.25" stop-color="#dbdbdb"/><stop offset="0.54" stop-color="#fff"/><stop offset="0.61" stop-color="#ececec"/><stop offset="0.78" stop-color="#c6c6c6"/><stop offset="0.87" stop-color="#b8b8b8"/></linearGradient></defs><g class="cls-1"><g id="Capa_1" data-name="Capa 1"><path class="cls-2" d="M384.63,123.18c88.41,51,88.87,133.78,1,184.83S155,359,66.6,308s-88.86-133.78-1-184.81S296.24,72.15,384.63,123.18Z"/><g class="cls-1"><polygon class="cls-3" points="360.57 32.96 360.31 124.3 291.21 164.46 291.46 73.12 360.57 32.96"/><path class="cls-4" d="M127.14,203.6l.26-91.34c0-14.17,9.35-28.32,28-39.14,37.45-21.77,98.39-21.77,136.09,0l-.25,91.33c-37.7-21.76-98.65-21.76-136.1,0C136.49,175.27,127.18,189.42,127.14,203.6Z"/><polygon class="cls-3" points="155.81 151.95 155.55 243.29 86.44 283.45 86.7 192.11 155.81 151.95"/><path class="cls-3" d="M29.09,203.32,29.34,112c-.08,29,19.06,58,57.36,80.13l-.25,91.34C48.14,261.33,29,232.3,29.09,203.32Z"/><path class="cls-5" d="M360.57,33,291.46,73.12c-37.7-21.77-98.64-21.77-136.09,0s-37.26,57.07.44,78.83L86.7,192.11C10.59,148.17,10.16,76.92,85.81,33S284.46-11,360.57,33Z"/></g><g class="cls-1"><path class="cls-6" d="M360.57,33C379.15,43.68,393.14,56,402.7,69.19L312.48,91.26c-4.72-6.59-11.72-12.77-21-18.14Z"/><polygon class="cls-7" points="402.7 69.19 402.44 160.53 312.22 182.6 312.48 91.26 402.7 69.19"/><path class="cls-8" d="M312.48,91.26l-.26,91.34c-4.72-6.59-11.71-12.78-21-18.15l.25-91.33C300.76,78.49,307.76,84.67,312.48,91.26Z"/><path class="cls-9" d="M402.7,69.19c9.92,13.69,15,28.24,15.19,42.84l-98,.41a36.7,36.7,0,0,0-7.4-21.18Z"/><path class="cls-10" d="M319.88,112.44l-.26,91.33c-.07-7.2-2.53-14.41-7.4-21.17l.26-91.34A36.7,36.7,0,0,1,319.88,112.44Z"/><polygon class="cls-11" points="417.89 112.03 417.63 203.36 319.62 203.78 319.88 112.44 417.89 112.03"/><path class="cls-12" d="M417.9,113.12l-.26,91.34c-.08,28.6-18.86,57.16-56.43,79l.26-91.34C399,170.28,417.82,141.72,417.9,113.12Z"/><path class="cls-13" d="M417.89,112c.4,29-18.38,58-56.42,80.08L291.91,152c18.76-10.9,28.09-25.22,28-39.51Z"/><polygon class="cls-12" points="361.47 192.11 361.21 283.45 291.65 243.29 291.91 151.95 361.47 192.11"/></g><g class="cls-1"><path class="cls-14" d="M361.47,192.11l-.26,91.34c-75.65,44-198.62,44-274.76,0l.25-91.34C162.84,236.07,285.82,236.07,361.47,192.11Z"/><path class="cls-15" d="M361.47,192.11c-75.65,44-198.63,44-274.77,0L155.81,152c37.7,21.77,98.62,21.78,136.1,0Z"/></g><path class="cls-16" d="M361.47,192.11h0c-75.65,44-198.63,44-274.77,0C48.4,170,29.26,141,29.34,112l-.25,91.34c-.09,29,19.05,58,57.36,80.13,76.14,44,199.11,44,274.76,0,37.57-21.83,56.35-50.39,56.43-79l.26-91.34C417.82,141.72,399,170.28,361.47,192.11Z"/></g></g></svg>